<svg fill="#fffaf0" height="100px" width="100px" version="1.1" id="Layer_1" xmlns="http://www.w3.org/2000/svg" xmlns:xlink="http://www.w3.org/1999/xlink" viewBox="-51.2 -51.2 614.40 614.40" xml:space="preserve" stroke="#fffaf0" stroke-width="0.005120040000000001" transform="rotate(270)"><g id="SVGRepo_bgCarrier" stroke-width="0"></g><g id="SVGRepo_tracerCarrier" stroke-linecap="round" stroke-linejoin="round"></g><g id="SVGRepo_iconCarrier"> <g> <g> <path d="M395.783,235.002l-3.484-8.951c-1.991-5.116-7.749-7.65-12.869-5.658c-5.116,1.993-7.649,7.755-5.658,12.87l3.484,8.951 c1.529,3.931,5.287,6.336,9.265,6.336c1.198,0,2.417-0.219,3.604-0.68C395.24,245.88,397.774,240.118,395.783,235.002z"></path> </g> </g> <g> <g> <path d="M468.019,425.242l-21.127-54.274l-18.193-46.743c-0.004-0.009-0.009-0.017-0.013-0.026l-14.599-37.502 c-1.991-5.115-7.756-7.649-12.869-5.658c-5.116,1.991-7.648,7.753-5.658,12.869l9.336,23.982H105.945l49.701-131.127h198.207 l5.242,13.465c1.989,5.114,7.753,7.646,12.869,5.658c5.116-1.991,7.648-7.753,5.658-12.869l-6.782-17.423 c-0.099-0.806-0.298-1.604-0.599-2.378l-49.86-128.091c-10.849-27.861-36.099-45.124-65.962-45.124c-0.086,0-0.175,0-0.262,0 c-0.021,0-0.041-0.001-0.062-0.001c-0.115,0-0.231,0-0.346,0.001c-30.012,0.134-55.263,17.65-65.9,45.714L82.256,324.301 c-0.001,0.003-0.003,0.004-0.003,0.007l-27.784,73.307l-10.673,28.159c-2.781,7.336-4.143,15.008-4.134,22.642 c0.016,12.722,3.845,25.334,11.273,36.094c11.886,17.216,31.469,27.494,52.388,27.494h0.003H408.69 c21.036,0,40.681-10.366,52.554-27.729c4.954-7.244,8.257-15.314,9.898-23.676C473.436,448.919,472.466,436.664,468.019,425.242z M206.766,52.763c9.137-24.115,30.455-32.794,47.366-32.879c16.872,0.024,38.09,8.551,47.395,32.455l44.588,114.545H163.508 L206.766,52.763z M451.016,459.715c-1.272,4.66-3.327,9.159-6.184,13.338c-8.287,12.119-21.461,19.07-36.143,19.07H103.326v-0.003 c-14.603,0-27.735-6.892-36.032-18.909c-5.185-7.511-7.829-16.078-7.819-24.781c0.005-5.222,0.966-10.493,2.908-15.612 l15.642-41.266l20.385-53.782h314.227l17.687,45.438l19.167,49.247C452.98,441.421,453.435,450.86,451.016,459.715z"></path> </g> </g> </g></svg>